<?xml version="1.0" encoding="UTF-8" standalone="no"?>
<!-- Created with Inkscape (http://www.inkscape.org/) -->

<svg
   xmlns:dc="http://purl.org/dc/elements/1.1/"
   xmlns:cc="http://creativecommons.org/ns#"
   xmlns:rdf="http://www.w3.org/1999/02/22-rdf-syntax-ns#"
   xmlns:svg="http://www.w3.org/2000/svg"
   xmlns="http://www.w3.org/2000/svg"
   xmlns:sodipodi="http://sodipodi.sourceforge.net/DTD/sodipodi-0.dtd"
   xmlns:inkscape="http://www.inkscape.org/namespaces/inkscape"
   width="744.09448819"
   height="1052.3622047"
   id="svg2"
   version="1.1"
   inkscape:version="0.48.4 r9939"
   sodipodi:docname="entity_unit_creature_human.svg">
  <defs
     id="defs4">
    <inkscape:perspective
       sodipodi:type="inkscape:persp3d"
       inkscape:vp_x="0 : 526.18109 : 1"
       inkscape:vp_y="0 : 1000 : 0"
       inkscape:vp_z="744.09448 : 526.18109 : 1"
       inkscape:persp3d-origin="372.04724 : 350.78739 : 1"
       id="perspective4029" />
  </defs>
  <sodipodi:namedview
     id="base"
     pagecolor="#ffffff"
     bordercolor="#666666"
     borderopacity="1.0"
     inkscape:pageopacity="0.0"
     inkscape:pageshadow="2"
     inkscape:zoom="1"
     inkscape:cx="344.52216"
     inkscape:cy="696.7524"
     inkscape:document-units="px"
     inkscape:current-layer="layer1"
     showgrid="true"
     inkscape:snap-to-guides="true"
     inkscape:window-width="1849"
     inkscape:window-height="1054"
     inkscape:window-x="62"
     inkscape:window-y="-9"
     inkscape:window-maximized="1"
     showguides="true"
     inkscape:snap-global="true"
     inkscape:snap-grids="true">
    <inkscape:grid
       type="xygrid"
       id="grid3004" />
  </sodipodi:namedview>
  <metadata
     id="metadata7">
    <rdf:RDF>
      <cc:Work
         rdf:about="">
        <dc:format>image/svg+xml</dc:format>
        <dc:type
           rdf:resource="http://purl.org/dc/dcmitype/StillImage" />
        <dc:title />
      </cc:Work>
    </rdf:RDF>
  </metadata>
  <g
     inkscape:label="Layer 1"
     inkscape:groupmode="layer"
     id="layer1">
    <path
       sodipodi:type="arc"
       style="fill:#cc9900;stroke:none"
       id="path3781"
       sodipodi:cx="340"
       sodipodi:cy="425.21933"
       sodipodi:rx="137.14285"
       sodipodi:ry="135.71428"
       d="m 477.14285,425.21933 a 137.14285,135.71428 0 1 1 -274.2857,0 137.14285,135.71428 0 1 1 274.2857,0 z"
       transform="translate(28,-30)" />
    <path
       sodipodi:type="arc"
       style="fill:#cc9900;stroke:none"
       id="path3825"
       sodipodi:cx="182.85715"
       sodipodi:cy="150.93361"
       sodipodi:rx="57.142857"
       sodipodi:ry="55.714287"
       d="m 240,150.93361 a 57.142857,55.714287 0 1 1 -114.28571,0 57.142857,55.714287 0 1 1 114.28571,0 z"
       transform="translate(80.42857,240.57143)" />
    <path
       transform="translate(283.71428,243.42857)"
       sodipodi:type="arc"
       style="fill:#cc9900;stroke:none"
       id="path3825-0"
       sodipodi:cx="182.85715"
       sodipodi:cy="150.93361"
       sodipodi:rx="57.142857"
       sodipodi:ry="55.714287"
       d="m 240,150.93361 a 57.142857,55.714287 0 1 1 -114.28571,0 57.142857,55.714287 0 1 1 114.28571,0 z" />
    <path
       sodipodi:type="arc"
       style="fill:#ffff99;stroke:none"
       id="path3853"
       sodipodi:cx="248.57143"
       sodipodi:cy="439.50504"
       sodipodi:rx="42.857143"
       sodipodi:ry="41.42857"
       d="m 291.42857,439.50504 a 42.857143,41.42857 0 1 1 -85.71429,0 42.857143,41.42857 0 1 1 85.71429,0 z"
       transform="translate(12.571429,-49.14286)" />
    <path
       sodipodi:type="arc"
       style="fill:#ffff99;stroke:none"
       id="path3853-9"
       sodipodi:cx="248.57143"
       sodipodi:cy="439.50504"
       sodipodi:rx="42.857143"
       sodipodi:ry="41.42857"
       d="m 291.42857,439.50504 a 42.857143,41.42857 0 1 1 -85.71429,0 42.857143,41.42857 0 1 1 85.71429,0 z"
       transform="translate(219.28572,-44.99999)" />
    <path
       sodipodi:type="arc"
       style="fill:#000000;fill-opacity:1;stroke:none"
       id="path3873"
       sodipodi:cx="207.14285"
       sodipodi:cy="281.64789"
       sodipodi:rx="23.571428"
       sodipodi:ry="22.857143"
       d="m 230.71428,281.64789 a 23.571428,22.857143 0 1 1 -47.14286,0 23.571428,22.857143 0 1 1 47.14286,0 z"
       transform="translate(53.857143,108.57143)" />
    <path
       sodipodi:type="arc"
       style="fill:#ffffff;fill-opacity:1;stroke:none"
       id="path3875"
       sodipodi:cx="263.92856"
       sodipodi:cy="260.93362"
       sodipodi:rx="6.7857141"
       sodipodi:ry="7.1428571"
       d="m 270.71427,260.93362 a 6.7857141,7.1428571 0 1 1 -13.57143,0 6.7857141,7.1428571 0 1 1 13.57143,0 z"
       transform="translate(4.571429,119.28571)" />
    <path
       transform="translate(263.57143,112.42858)"
       sodipodi:type="arc"
       style="fill:#000000;fill-opacity:1;stroke:none"
       id="path3873-4"
       sodipodi:cx="207.14285"
       sodipodi:cy="281.64789"
       sodipodi:rx="23.571428"
       sodipodi:ry="22.857143"
       d="m 230.71428,281.64789 a 23.571428,22.857143 0 1 1 -47.14286,0 23.571428,22.857143 0 1 1 47.14286,0 z" />
    <path
       sodipodi:type="arc"
       style="fill:#ffffff;fill-opacity:1;stroke:none"
       id="path3875-8"
       sodipodi:cx="263.92856"
       sodipodi:cy="260.93362"
       sodipodi:rx="6.7857141"
       sodipodi:ry="7.1428571"
       d="m 270.71427,260.93362 a 6.7857141,7.1428571 0 1 1 -13.57143,0 6.7857141,7.1428571 0 1 1 13.57143,0 z"
       transform="translate(214.28571,123.14286)" />
    <path
       style="fill:#996600;fill-opacity:1;stroke:none"
       d="m 299.85714,321.57647 c 0,9.66498 -4.01848,14.64286 -12.5,14.64286 -8.48151,0 -35.35714,4.30784 -35.35714,-5.35715 0,-9.66498 24.73277,-23.21428 33.21428,-23.21428 8.48152,0 14.64286,4.26359 14.64286,13.92857 z"
       id="path3825-8"
       inkscape:connector-curvature="0"
       sodipodi:nodetypes="sssss" />
    <path
       style="fill:#996600;fill-opacity:1;stroke:none"
       d="m 433.78572,321.81231 c 0,9.66499 4.07846,14.64286 12.68657,14.64286 8.6081,0 35.88486,4.30784 35.88486,-5.35714 0,-9.66499 -25.10192,-23.21429 -33.71002,-23.21429 -8.60811,0 -14.86141,4.26359 -14.86141,13.92857 z"
       id="path3825-8-2"
       inkscape:connector-curvature="0"
       sodipodi:nodetypes="sssss" />
    <path
       style="fill:#996600;fill-opacity:1;stroke:none"
       d="m 440.42858,468.57648 c 0.57819,22.9149 -36.35058,35.35713 -69.64286,36.07142 -33.99874,0.72945 -77.05935,-11.77081 -76.78571,-36.07142 0.36745,-32.63187 34.92201,-1.78572 75.35714,-1.78572 40.43514,0 70.25477,-30.5801 71.07143,1.78572 z"
       id="path3951"
       inkscape:connector-curvature="0"
       sodipodi:nodetypes="sssss" />
    <path
       style="fill:#ffffff;fill-opacity:1;stroke:none"
       d="m 420.21344,467.55527 c 0.41743,15.54528 -26.2439,23.98599 -50.27981,24.47056 -24.54595,0.49485 -55.63426,-7.98522 -55.4367,-24.47056 0.26529,-22.13719 25.21252,-1.21141 54.40532,-1.21141 29.19282,0 50.72159,-20.74529 51.31119,1.21141 z"
       id="path3951-5"
       inkscape:connector-curvature="0"
       sodipodi:nodetypes="sssss" />
    <path
       style="fill:#704600;fill-opacity:1;stroke:none"
       d="m 290.57142,462.43359 c 0,8.08703 -6.87563,15.35715 -15.35714,15.35715 -8.48152,0 -60.35714,4.15845 -60.35714,0.35714 0,-8.08703 51.87562,-30.35715 60.35714,-30.35715 8.48151,0 15.35714,6.55583 15.35714,14.64286 z"
       id="path4008"
       inkscape:connector-curvature="0"
       sodipodi:nodetypes="sssss" />
    <path
       style="fill:#704600;fill-opacity:1;stroke:none"
       d="m 446.14286,462.31138 c 0,8.08703 6.87563,15.35715 15.35714,15.35715 8.48152,0 60.35714,4.15845 60.35714,0.35714 0,-8.08703 -51.87562,-30.35715 -60.35714,-30.35715 -8.48151,0 -15.35714,6.55583 -15.35714,14.64286 z"
       id="path4008-1"
       inkscape:connector-curvature="0"
       sodipodi:nodetypes="sssss" />
  </g>
  <g
     inkscape:groupmode="layer"
     id="layer2"
     inkscape:label="层" />
</svg>
